<svg xmlns="http://www.w3.org/2000/svg" viewBox="0 0 526.9089 208.8832"><g id="b4ca9a0c-8903-40e9-81e2-f1e6310b3dbd" data-name="Layer 2"><g id="f71f1297-b322-4c8f-9efd-83361e0d463e" data-name="Layer 1"><polygon points="389.345 145.197 353.081 98.51 353.13 145.234 333.279 145.255 333.193 63.382 350.538 63.364 385.623 108.549 385.575 63.327 405.426 63.307 405.512 145.18 389.345 145.197" style="fill:#fff"/><rect x="418.6082" y="63.2824" width="20.0652" height="81.873" transform="translate(-0.1087 0.4482) rotate(-0.0599)" style="fill:#fff"/><path d="M491.7437,146.3769a41.1609,41.1609,0,0,1-29.7366-12.2118,42.1915,42.1915,0,0,1-11.8866-29.7526l0-.214A42.3941,42.3941,0,0,1,461.882,74.4036a41.7732,41.7732,0,0,1,30.309-12.4714c16.4045-.017,25.5811,6.7234,31.7434,12.5969l2.377,2.266-12.9346,14.931-2.6125-2.42c-6.3466-5.8809-11.9272-8.3867-18.6609-8.38-12.1427.0126-21.29,9.9163-21.2761,23.0364l0,.2145c.0138,13.2424,9.1817,23.219,21.3244,23.2063,8.1018-.0084,13.3422-3.39,19.172-8.8416l2.4459-2.2878,13.1391,13.2773-2.2258,2.4192C515.5153,141.9132,505.3562,146.3626,491.7437,146.3769Z" style="fill:#fff"/><path d="M295.3841,145.2948,259.12,98.6086l.0488,46.7241-19.8507.0207-.0855-81.873,17.345-.0182,35.084,45.1848-.0472-45.2214,19.8367-.0207A104.4513,104.4513,0,0,0,132.0427,41.513a104.4011,104.4011,0,0,1,.1317,126.0317A104.4516,104.4516,0,0,0,311.5361,145.278Zm-94.3227.6341-16.1781.0169-34.1015-82.373,22.0655-.023,20.2993,51.6008,20.0959-51.643,21.748-.0228Z" style="fill:#fff;fill-rule:evenodd"/><path d="M86.0436,191.0813c-5.5565,1.04-10.6562,4.2845-11.1807,6.8812-.6009,2.0793,3.0426,2.5656,7.9412,1.405,4.6654-1.3332,9.5176-3.8169,10.7853-5.7688C94.7649,191.1392,91.4476,189.8587,86.0436,191.0813Zm33.4577-30.9941c-4.9854,1.4084-9.98,6.6774-10.9238,11.5155-1.0456,4.44,1.9324,6.461,6.3779,4.7763,4.19-1.9009,8.6193-6.5341,10.1419-10.62C126.4439,161.3486,124.06,158.6492,119.5013,160.0872Zm-30.1371,6.18c-6.461.8366-12.0331,5.9472-12.2389,11.1054-.3365,4.7763,4.3782,7.6467,10.3225,6.6539,5.7121-1.1252,10.9536-5.5878,11.7874-10.18C99.961,168.8672,95.5893,165.3376,89.3642,166.2669ZM53.4768,169.32c-6.88.1829-12.0771,4.7591-11.5708,9.934.5025,4.7635,6.0921,8.352,12.4305,8.2228,6.4033-.3,11.5694-4.2536,11.5866-9.0459C65.9663,173.2163,60.319,169.0149,53.4768,169.32Zm36.499-14.381a14.2024,14.2024,0,0,0,12.1166-12.9777A10.61,10.61,0,0,0,90.3606,130.81a13.8305,13.8305,0,0,0-12.5853,13.521C77.7851,150.961,83.3254,155.666,89.9758,154.9392Zm-.57-102.2075a10.6091,10.6091,0,0,0-11.708,11.1765A14.2013,14.2013,0,0,0,89.8413,76.86c6.6525.7133,12.1824-4.0033,12.1784-10.6337A13.83,13.83,0,0,0,89.4061,52.7317ZM52.9291,157.7376c7.0722-.3079,12.7906-5.9189,12.6154-12.5936-.162-6.9142-6.3251-12.412-13.6863-12.0978-7.3756.255-12.9978,6.2113-12.5844,13.0887C39.7052,152.7891,45.8458,157.9466,52.9291,157.7376ZM13.6058,133.7959A10.3267,10.3267,0,0,0,3.1266,145.7043,14.3639,14.3639,0,0,0,16.14,157.6877a10.3373,10.3373,0,0,0,10.9745-11.4485A13.8455,13.8455,0,0,0,13.6058,133.7959Zm125.37-31.7821c.16,6.1189,3.03,10.763,6.0794,10.2721,2.532-.4793,4.2591-5.2887,4.1413-10.6823-.3155-5.3873-2.4277-10.04-4.9888-10.3153C141.1284,91.0428,138.6446,95.9038,138.9761,102.0138ZM122.21,90.5452c-5.4784-.03-9.8739,5.6315-9.5419,12.5288.2269,6.9013,5.0622,12.1887,10.5234,11.72,5.0642-.4769,8.8621-6.0883,8.6779-12.4943C131.5333,95.9019,127.2982,90.6143,122.21,90.5452ZM90.1757,117.1436c6.7895-.4083,12.0326-6.5252,11.79-13.64-.3336-7.1106-6.051-12.786-12.8513-12.648-7.0176.1526-12.5863,6.3121-12.2715,13.6585C77.1238,111.8648,83.1719,117.5587,90.1757,117.1436ZM51.25,119.0715a13.514,13.514,0,1,0-14.0624-12.97A13.5861,13.5861,0,0,0,51.25,119.0715Zm-38.6165,1.1661c6.9041-.145,12.3848-6.28,12.058-13.6383-.269-7.3293-6.2249-13.0045-13.118-12.5941C4.9213,94.3893-.2245,100.537.0075,107.5774.3462,114.675,5.9714,120.3883,12.6336,120.2376Zm96.7957-54.472c.8159,6.39,6.1209,11.9374,11.5393,12.19,5.0363.3238,8.119-4.3453,7.1242-10.2171-1.1793-5.7438-5.8586-10.951-10.7194-11.816C112.1754,55.2065,108.4852,59.5582,109.4293,65.7656Zm10.81,61.5252c-4.8592.8757-9.5274,6.0926-10.6948,11.8385-.9824,5.8737,2.1105,10.5365,7.1457,10.202,5.4179-.2636,10.7112-5.8224,11.5138-12.2138C129.135,130.9082,125.4351,126.5641,120.2388,127.2908ZM49.6363,78.0862C57,77.8076,62.7,71.8305,62.3021,64.9281c-.3627-6.6686-6.5172-11.8-13.59-11.538-7.0753.3582-12.7793,5.9928-12.6747,12.66C36.1814,72.9391,42.265,78.4231,49.6363,78.0862ZM11.45,80.4133a13.841,13.841,0,0,0,12.46-13.4881,10.3388,10.3388,0,0,0-11.8633-10.53A14.3555,14.3555,0,0,0,.0425,69.3843,10.3307,10.3307,0,0,0,11.45,80.4133Zm91.6118-45.3167c1.33,4.7446,6.7351,9.595,11.8188,10.5975,4.6577,1.0683,6.8148-1.8139,5.12-6.1023-1.8465-3.95-6.6378-8.2131-10.9675-9.7695C104.466,28.5011,101.6615,30.7534,103.0613,35.0966ZM93.57,33.6089C92.367,29.1,86.7829,25.0737,80.9985,24.41c-6.0042-.5115-10.4744,2.73-9.7537,7.4609.6242,5.1254,6.5875,9.7736,13.0973,10.0863C90.621,42.3831,94.6935,38.5155,93.57,33.6089ZM48.3225,41.8c6.8476-.2461,12.1344-4.8876,11.6722-10.083-.4053-4.7751-5.8725-8.3026-12.2795-8.0837-6.3294.38-11.61,4.4057-11.7268,9.1935C35.9031,38.0276,41.452,42.17,48.3225,41.8ZM86.3451,14.3778c-1.4191-1.8475-6.4567-3.93-11.2116-4.8869-4.9783-.7613-8.5724.0173-7.8044,2.0393.735,2.5457,6.0782,5.3707,11.6981,5.96C84.5124,18.2758,87.717,16.7329,86.3451,14.3778Zm49.619,58.0388c2.0962,5.2546,5.54,8.8208,7.6927,7.9656s2.1981-5.8085.1019-11.0627-5.54-8.8213-7.6926-7.966S133.868,67.1619,135.9641,72.4166Zm9.548,50.813c-2.2141-.68-5.36,3.1509-7.0264,8.5566s-1.2219,10.3393.9926,11.0189,5.36-3.151,7.0265-8.557S147.7261,123.9092,145.5121,123.23Zm-12.7039,34.2823c-2.7977,4.2986-4.4177,8.2034-3.6191,8.7214s3.715-2.5469,6.5126-6.846,4.4183-8.2033,3.6191-8.7213S135.6063,153.2129,132.8082,157.5119Zm2.4466-104.245c.7581-.5754-1.1484-4.3494-4.2578-8.4292s-6.2453-6.92-7.0035-6.3444,1.1479,4.3495,4.2577,8.4292S134.4965,53.8429,135.2548,53.2669ZM100.793,21.5374c4.3224,2.55,8.1619,4.0514,8.575,3.3536s-2.7557-3.33-7.0786-5.8806-8.1621-4.0518-8.575-3.3535S96.47,18.9874,100.793,21.5374Zm6.7461,163.6158c-4.1218,2.8622-7.0868,5.7216-6.6233,6.3873s4.1816-1.1153,8.3033-3.9774,7.0872-5.7219,6.6233-6.3877S111.661,182.2908,107.5391,185.1532Z" style="fill:#fff;fill-rule:evenodd"/><path d="M349.5573,172.6083a5.8,5.8,0,0,1,5.0895-2.8775,4.249,4.249,0,0,1,4.5749,4.2819c.1521,2.1734.0444,4.3486.0811,6.5227.0122.7221.0042.7187.7472.7237,1.3915.01,1.2407-.1646,1.2513,1.229.0027.3469-.0053.6937.001,1.04.0055.3057-.1134.4731-.4424.4726q-2.3482-.0033-4.6969.0044a.3856.3856,0,0,1-.44-.4314c-.0029-.1576-.0082-.3151-.0084-.4727q-.0045-3.4758-.0079-6.9517c0-.2838.001-.5677-.0077-.8512-.0549-1.8088-1.1039-2.6225-2.8646-2.1771a4.0056,4.0056,0,0,0-2.9674,3.5054,25.2061,25.2061,0,0,0-.1185,4.2941c-.0061.2742.157.3485.3967.3466.3637-.0028.7275.0072,1.0912,0,.328-.0063.502.1185.496.47-.01.5989-.0079,1.1981.0017,1.7969.0049.309-.1121.4748-.4387.4749q-3.3447.0007-6.69.0076c-.307.0006-.4139-.1556-.41-.4451.0081-.6147.0091-1.23-.0023-1.8443-.0059-.3235.1368-.4594.4543-.4532.3635.0069.7278-.0112,1.091.0008.3171.01.4553-.1061.4538-.4393q-.0162-3.7123-.0106-7.4247a.5491.5491,0,0,0-.6046-.6231q-.5449-.0152-1.091-.0058c-.2845.0046-.4576-.101-.4584-.4053-.0016-.63-.0035-1.2609-.0008-1.8914a.3578.3578,0,0,1,.4133-.3992c1.2017.0064,2.4049-.0259,3.605.0206a1.426,1.426,0,0,1,1.51,1.62C349.5593,171.9757,349.5569,172.2239,349.5573,172.6083Z" style="fill:#fff"/><path d="M406.7073,172.2883c.23-.2694.4358-.5417.6729-.7836a5.6848,5.6848,0,0,1,6.266-1.474,3.7126,3.7126,0,0,1,2.3923,2.7945,6.7589,6.7589,0,0,1,.2236,1.7778c-.0031,2.0025.015,4.0051-.0027,6.0073-.0041.45.1263.637.5894.5945.3294-.03.664,0,.996-.0065.3081-.0063.477.1152.4745.4415-.0047.6306-.0017,1.2614,0,1.892a.3576.3576,0,0,1-.406.4068q-2.3729.0012-4.7455.0044c-.4071,0-.3807-.2867-.3809-.5618q-.0029-3.8077-.0056-7.6157a5.5011,5.5011,0,0,0-.1906-1.4488,1.6869,1.6869,0,0,0-1.64-1.3321,3.4936,3.4936,0,0,0-3.45,1.8944,5.3549,5.3549,0,0,0-.733,2.6609c-.0144,1.0405.0115,2.0816-.01,3.1218-.0083.4038.1126.5858.5379.5523.33-.026.6641.0009.9961-.0043.32-.0049.4584.147.4554.4617-.0055.5992-.008,1.1984.0035,1.7974.0064.3413-.1431.4876-.4819.4844-.6644-.0062-1.3287.0012-1.9931.0019-1.487.0018-2.9741-.0076-4.4609.0107-.4507.0055-.6266-.1563-.6041-.6087.0273-.5506.0149-1.1036.0029-1.6552-.0073-.3416.1427-.4924.4807-.4864.332.0061.6655-.0189.9963.0026.3935.0256.5242-.1333.5206-.5223-.0164-1.7659-.01-3.5319-.0117-5.2979-.0007-.6622.0059-1.3246-.0068-1.9866-.01-.5166-.1707-.67-.6908-.6858-.3319-.01-.6646-.012-.9964-.0021-.3239.01-.4611-.1443-.46-.4554.0019-.5833.0047-1.1668-.0046-1.75-.0058-.3622.1565-.501.519-.4967,1.0754.0129,2.1515-.0089,3.2269.0071,1.235.0181,1.71.4727,1.8319,1.6914C406.6372,171.9,406.5759,172.0953,406.7073,172.2883Z" style="fill:#fff"/><path d="M469.3663,184.1979a7.7125,7.7125,0,0,1-5.6052-2.2432,7.2483,7.2483,0,0,1-.6855-9.2833,7.9768,7.9768,0,0,1,12.7805.3014,7.2311,7.2311,0,0,1-3.2992,10.6059A7.82,7.82,0,0,1,469.3663,184.1979Zm3.99-7.2727c0-.126.0079-.2528-.0016-.3781a4.0057,4.0057,0,0,0-6.6189-2.8828,4.488,4.488,0,0,0-1.1278,4.8208,3.9908,3.9908,0,0,0,7.7483-1.56Z" style="fill:#fff"/><path d="M504.9281,181.9812a12.52,12.52,0,0,1-.98,1.0515,5.0855,5.0855,0,0,1-6.7431-.2847,4.0777,4.0777,0,0,1,.7791-6.1781,10.2866,10.2866,0,0,1,4.7418-1.3393c.5192-.0446,1.0413-.0711,1.5622-.0736.3589-.0016.4572-.1607.4553-.4937a2.0442,2.0442,0,0,0-2.0509-2.1524,6.6608,6.6608,0,0,0-3.7552.9673c-.5978.3246-.5971.3243-.91-.2644-.2663-.5012-.5312-1.0034-.8034-1.5016-.1211-.2215-.15-.4119.1014-.5645a8.868,8.868,0,0,1,8.1951-.9941,4.3392,4.3392,0,0,1,2.6766,3.6354,28.166,28.166,0,0,1,.1546,4.2465q.0177,1.2529.0031,2.5061c-.0046.4022.1726.5853.5723.56.0158-.001.0316,0,.0474,0,1.3.0164,1.1857-.1917,1.1917,1.241.0015.3467-.0058.6936.0007,1.04.0058.3111-.1253.4656-.45.4636-1.0279-.0062-2.057.0287-3.0833-.0128a1.5136,1.5136,0,0,1-1.6069-1.569C505.0177,182.1759,505.0541,182.0732,504.9281,181.9812Zm-1.2237-4.5531a7.15,7.15,0,0,0-2.784.5734,1.786,1.786,0,0,0-1.1712,1.479,1.852,1.852,0,0,0,2.3712,1.94,3.6225,3.6225,0,0,0,2.61-3.0437C504.8347,177.4465,504.8016,177.41,503.7044,177.4281Z" style="fill:#fff"/><path d="M381.7473,177.56q-2.0643.0028-4.1286.0053c-.6328.0015-.69.1081-.5225.7373.5951,2.2306,2.5408,3.2882,5.0013,2.8479a6.5434,6.5434,0,0,0,2.5492-1.1054c.3278-.2253.48-.1621.645.172.28.565.5769,1.1236.9046,1.662a.4641.4641,0,0,1-.1465.7427,8.8,8.8,0,0,1-4.1118,1.602,8.0141,8.0141,0,0,1-4.9666-.8483,6.8574,6.8574,0,0,1-3.5493-5.0986,7.5687,7.5687,0,0,1,1.2463-5.7691A6.9723,6.9723,0,0,1,384.02,170.8a6.012,6.012,0,0,1,2.48,4.5476,9.102,9.102,0,0,1,.0278,1.697c-.03.3887-.181.5188-.5567.5161C384.563,177.55,383.1551,177.5585,381.7473,177.56Zm-1.7659-2.1852c.8064-.0008,1.6129,0,2.4192-.0035.2264-.0008.4814.0048.4532-.3272a2.6758,2.6758,0,0,0-1.956-2.4643,3.1673,3.1673,0,0,0-3.7154,2.3216c-.0955.3719.017.4856.38.48C378.3683,175.3688,379.1749,175.3762,379.9814,175.3751Z" style="fill:#fff"/><path d="M428.3277,177.5118c-1.3914.0018-2.7828.0127-4.1741-.0012-.4134-.004-.5613.0906-.4665.5447a3.8231,3.8231,0,0,0,3.7519,3.1351,6.295,6.295,0,0,0,3.8265-1.177c.3434-.2342.5078-.1846.6816.1725.2549.524.55,1.0287.8247,1.543.297.555.2767.6118-.2594.9753a8.7758,8.7758,0,0,1-3.9615,1.4738,7.89,7.89,0,0,1-5.4482-1.1578,6.7779,6.7779,0,0,1-3.0781-5.0954,7.3233,7.3233,0,0,1,2.3129-6.6036c2.4988-2.2764,6.8809-2.2349,9.1147.1243a7.0165,7.0165,0,0,1,1.7206,5.6126c-.0261.3743-.2444.4545-.5763.4528C431.1737,177.503,429.7507,177.51,428.3277,177.5118Zm-1.7476-2.1861c.8226-.0009,1.6451-.0044,2.4678-.0011.2845.0011.4369-.0888.4311-.4117a2.5686,2.5686,0,0,0-2.3061-2.4242,3.1582,3.1582,0,0,0-3.3558,2.3539c-.1134.3584-.0414.4958.3427.49C424.9664,175.32,425.7734,175.3274,426.58,175.3257Z" style="fill:#fff"/><path d="M456.7946,176.8994c.0014,1.2453.0125,2.4907-.0019,3.7358-.0044.3853.1284.5472.5228.5258.41-.0221.8228.01,1.2331-.0093.3986-.0184.5813.1221.5619.5438a15.3838,15.3838,0,0,0,.0031,1.6071c.027.4553-.1452.6089-.5976.6048-1.74-.0156-3.4791-.0033-5.2187-.0014-.5219,0-1.0442-.012-1.5655.0048-.3863.0125-.5446-.1471-.5341-.5309.0152-.5514.0117-1.1035,0-1.655-.0083-.3919.1421-.587.5582-.5657.3628.0185.7274-.0042,1.0909.0022.2733.0048.4037-.1.4028-.389q-.0113-3.8539-.0075-7.7081c0-.28-.1047-.4031-.39-.3963-.4268.01-.8543-.0078-1.2808.0048-.33.01-.5044-.101-.4971-.4585.0123-.5988.0092-1.1981,0-1.7969-.0053-.3244.1415-.4546.4595-.446.3792.01.7608-.0218,1.1381.0062.4256.0317.6052-.1043.5728-.555a5.058,5.058,0,0,1,.2056-1.8233,4.2526,4.2526,0,0,1,2.8992-2.9417,8.0289,8.0289,0,0,1,3.28-.3159c.3661.0314.5226.1963.5082.5787-.0245.6454-.0126,1.2924-.0037,1.9385.0042.3048-.1253.4195-.4294.4087a8.7694,8.7694,0,0,0-1.2316.0143,1.9462,1.9462,0,0,0-1.6732,2.4517c.074.2592.268.23.4526.231.6957.0038,1.3923.02,2.0871-.0064.4446-.0169.59.1723.5766.5874-.0173.52-.0154,1.0406.0008,1.56.0123.3969-.1358.5743-.5534.5617-.68-.02-1.3606.0163-2.04-.01-.4247-.0166-.5459.15-.5392.5534C456.804,174.44,456.7931,175.67,456.7946,176.8994Z" style="fill:#fff"/><path d="M337.4458,184.0267c-1.1856.0015-2.3715-.0125-3.5566.0116-.4592.0093-.6163-.1561-.5909-.6062.0312-.55.0231-1.1031.0005-1.6538-.0157-.3826.1163-.5491.5145-.5292.4415.0219.8853-.0076,1.3275.0058.3248.01.4546-.1216.4486-.4463-.0131-.7088-.0044-1.418-.0051-2.127-.0036-3.5294-.0161-7.0589-.0009-10.5882.002-.4825-.1435-.651-.6215-.6095-.4079.0354-.8215-.0013-1.2322.009-.326.008-.45-.1384-.4437-.457.0116-.6144.0215-1.23-.006-1.8432-.0184-.4136.14-.559.5469-.5547,1.2487.0132,2.4976.0021,3.7464.0007,1.1224-.0011,2.2446-.0064,3.367-.0008.57.0028.63.067.6349.6212.0048.5829-.0039,1.166.0027,1.749.0038.3373-.1458.4885-.4878.478-.379-.0116-.7587-.0012-1.1381,0-.7207.0023-.7217.0025-.7211.7427q.0057,5.8849.0122,11.77c0,.2679.0117.5362-.0007.8034-.0149.3217.1194.4578.4469.4481.49-.0143.98.005,1.47-.0058.3031-.0066.4333.1284.4323.4224-.0022.6144-.0108,1.2294.007,1.8433.0117.4-.179.5192-.5487.5164C339.8486,184.0174,338.6471,184.0252,337.4458,184.0267Z" style="fill:#fff"/><path d="M440.5577,176.0177c.0009.8037-.0068,1.6076.0042,2.4111a2.3556,2.3556,0,0,0,2.5659,2.6145c.78.0289.78.0289.7809.8019,0,.5673-.001,1.1346,0,1.7019,0,.2257-.0554.4271-.317.4462a6.545,6.545,0,0,1-5.1561-1.38,4.868,4.868,0,0,1-1.4721-3.764c-.032-1.8433-.0112-3.6875-.015-5.5312-.0013-.6275-.0056-.63-.6353-.6317-.332-.001-.6642-.0092-.9959.0023-.3165.011-.4681-.1171-.4641-.4419.0071-.5987.0083-1.1977-.0031-1.7964-.0067-.35.155-.4754.4918-.4637.4105.0143.8227-.0125,1.2329.0053.3489.0151.4791-.1254.4737-.4706-.014-.898.0091-1.7968-.0122-2.6945-.0105-.44.1374-.6292.6-.6142.774.0248,1.55.0211,2.3237-.0016.4268-.0126.6.1413.591.5735-.0182.8506-.0047,1.7019-.0018,2.5528.0021.6445.0038.6451.67.6457.6482.0005,1.2967.0113,1.9445-.0055.3639-.0094.5229.1364.5181.497q-.0115.851.0021,1.7019c.0061.3562-.1417.5134-.51.5059-.6953-.0141-1.3919.0171-2.0865-.008-.4227-.0153-.5509.15-.5413.5538.022.9293.0086,1.8594.01,2.7892Z" style="fill:#fff"/><path d="M368.0171,176.0572c.0008.7878-.0037,1.5758.0035,2.3637a2.3784,2.3784,0,0,0,2.5944,2.6888c.7825.0267.7538-.0019.7545.8088,0,.5673-.0024,1.1345.0013,1.7018.0014.2273-.0513.4282-.3126.4471a6.552,6.552,0,0,1-5.1922-1.4123,4.66,4.66,0,0,1-1.395-3.3147c-.1314-1.9516-.0358-3.9061-.0646-5.8591-.0106-.7185-.0037-.7186-.7438-.7188-.174,0-.3478.0005-.5217.0005-.8252,0-.8257,0-.8271-.8474-.0007-.4569.0047-.9139,0-1.3709-.0035-.3307.1344-.4927.4835-.4813.4264.0139.8546-.0176,1.28.0061.3818.0213.4924-.1378.485-.4994-.0189-.9134.0046-1.8279-.014-2.7415-.0076-.3808.1211-.5451.5167-.5374.8218.0159,1.6442.0111,2.4661-.0009.3452-.0049.4819.1386.4781.4793-.01.8508-.0013,1.7017,0,2.5527.0014.7372.0018.7374.7632.737.6166,0,1.2336.0149,1.8494-.0069.3963-.0141.5364.15.5255.53-.0162.5667-.0115,1.1345,0,1.7016.0069.3424-.1385.48-.4823.4744-.7269-.0119-1.4546.01-2.1814-.005-.3455-.0071-.48.1185-.4746.4679C368.0246,174.1662,368.016,175.1118,368.0171,176.0572Z" style="fill:#fff"/><path d="M484.7484,172.56a6.8181,6.8181,0,0,1,1.8446-2.067,4.2222,4.2222,0,0,1,2.5494-.7434c.3738.0042.5392.1615.5321.5473-.0154.8351-.0094,1.6709.0007,2.5061.0041.33-.1007.5039-.466.4744-2.7979-.2257-4.16,1.84-4.3452,4.247-.0808,1.05-.0149,2.1111-.029,3.1669-.0043.3322.1437.4491.459.4384.3474-.0119.6959.0068,1.0436-.0034.3451-.01.4844.1519.48.4861-.0075.5989-.0054,1.1979.0009,1.7969.0033.313-.1317.4621-.4533.462q-3.3209-.0021-6.6417.0054c-.2857.0005-.4406-.1064-.4357-.4184.01-.63.0083-1.261-.0018-1.8914-.0049-.3019.1312-.4328.4255-.4309.3478.0022.6961-.0145,1.0434-.0011s.48-.1356.4767-.4775c-.0112-1.056-.0051-2.1121-.006-3.1681q-.002-1.9624-.0045-3.9248c-.0015-.8784-.0482-.9225-.9522-.9235-.2056,0-.4122-.0128-.6165.003-.3774.0292-.5563-.1113-.5435-.51.0183-.5667.0145-1.135,0-1.702-.01-.3709.1539-.4965.514-.4921,1.091.0137,2.1825-.01,3.2733.01a1.5383,1.5383,0,0,1,1.778,1.5936C484.716,171.88,484.7245,172.2206,484.7484,172.56Z" style="fill:#fff"/><path d="M394.3358,172.8045a6.8255,6.8255,0,0,1,1.9394-2.2189,4.1547,4.1547,0,0,1,2.5962-.7394c.3327.0135.4841.16.4813.497q-.0113,1.2766.0026,2.5535c.004.3689-.1565.5-.5218.4759a3.7767,3.7767,0,0,0-2.2427.4518,4.4159,4.4159,0,0,0-2.0461,3.791c-.075,1.0351-.0093,2.08-.0255,3.12-.0058.375.1532.5065.5122.49.3469-.0162.6955-.0017,1.0434.0012a.3347.3347,0,0,1,.377.38q-.0024.993.0015,1.9859c.0008.3742-.2653.3726-.5271.373q-1.85.0039-3.7.0052c-.9014.001-1.8032-.015-2.704.0094-.4586.0124-.6208-.1669-.6009-.6115.0244-.55.0127-1.1031.0029-1.6546-.0059-.3372.1375-.4946.48-.4856.3317.0088.6651-.0173.9959.003.3931.024.5276-.139.5228-.5255-.0167-1.3238-.0083-2.648-.01-3.9721-.0011-1.0876.0017-2.1753-.0059-3.2628-.0041-.5776-.1518-.7186-.7384-.7328-.3161-.0078-.6325-.0066-.9488-.0031-.2648.0029-.4211-.0976-.42-.3845.0028-.6462,0-1.2924,0-1.9386,0-.2554.1316-.3715.3832-.37,1.2332.0062,2.4678-.0218,3.6994.0273a1.4444,1.4444,0,0,1,1.4468,1.4645C394.3584,171.9549,394.3353,172.38,394.3358,172.8045Z" style="fill:#fff"/><path d="M516.3182,172.2476q.0035,3.3329.0074,6.6658c0,.2205-.0042.4418.0117.6615.0768,1.0621.4261,1.4065,1.4863,1.3935.4091-.005.5775.1263.5681.5345-.0146.63-.007,1.2607-.0018,1.8909a.4262.4262,0,0,1-.4359.4958,5.9656,5.9656,0,0,1-3.2045-.3953,3.11,3.11,0,0,1-1.6816-2.0606,6.7923,6.7923,0,0,1-.2838-1.957q.0054-5.7912-.0094-11.5825c-.0009-.685-.0025-.685-.6744-.6864-.3478-.0007-.6956-.0043-1.0433-.0013-.2779.0023-.399-.13-.3967-.4055.0052-.63.0069-1.2607-.0037-1.8909-.005-.2955.12-.4452.415-.4457q2.4186-.0041,4.8375-.0046c.3849,0,.4028.2653.4025.5547q-.0015,2.8365.0049,5.673Q516.3174,171.4675,516.3182,172.2476Z" style="fill:#fff"/><path d="M523.2867,172.24q.0035,3.3329.0074,6.6658c0,.22-.0041.4418.0117.6615.0768,1.0621.4261,1.4065,1.4863,1.3935.4091-.0049.5775.1263.5681.5345-.0146.63-.007,1.2607-.0018,1.8909a.4263.4263,0,0,1-.4359.4959,5.9646,5.9646,0,0,1-3.2045-.3954,3.11,3.11,0,0,1-1.6816-2.0606,6.7948,6.7948,0,0,1-.2838-1.957q.0054-5.7912-.0094-11.5825c-.0009-.685-.0025-.685-.6743-.6863-.3478-.0008-.6957-.0044-1.0434-.0014-.2778.0023-.3988-.13-.3966-.4055.005-.63.0068-1.2607-.0039-1.8909-.0049-.2955.12-.4452.4151-.4457q2.4187-.0041,4.8375-.0046c.3849,0,.4028.2653.4027.5547q-.0015,2.8365.0048,5.673Q523.2859,171.46,523.2867,172.24Z" style="fill:#fff"/></g></g></svg>