<?xml version="1.0" encoding="UTF-8" standalone="no"?>
<svg
   xmlns:dc="http://purl.org/dc/elements/1.1/"
   xmlns:cc="http://creativecommons.org/ns#"
   xmlns:rdf="http://www.w3.org/1999/02/22-rdf-syntax-ns#"
   xmlns:svg="http://www.w3.org/2000/svg"
   xmlns="http://www.w3.org/2000/svg"
   height="245.7153"
   width="694.59998"
   version="1.1"
   viewBox="0 0 694.6 245.7153"
   data-name="a22e81cd-e843-4e66-bc8f-255a872a8c26"
   id="ff5c8cec-e849-449c-a1ab-0adf2e5b83b9">
  <metadata
     id="metadata49">
    <rdf:RDF>
      <cc:Work
         rdf:about="">
        <dc:format>image/svg+xml</dc:format>
        <dc:type
           rdf:resource="http://purl.org/dc/dcmitype/StillImage" />
      </cc:Work>
    </rdf:RDF>
  </metadata>
  <defs
     id="defs47" />
  <title
     id="title2">dmca-logo</title>
  <path
     id="path4"
     style="fill:#8ac43f"
     d="M 0,215.00009 V 28.000088 c 0,0 7.9,-32.1000003 37.8,-27.50000034 L 663.7,8.7661626e-5 c 0,0 26.6,-0.300000001626 30.9,34.200000338374 V 215.00009 c 0,0 -13.3,32.9 -43.2,30.6 h -609 c 0,0 -37.3,-2.3 -42.4,-30.6 z" />
  <path
     id="path6"
     style="fill:#fffff9"
     d="m 138.2,83.100088 h -107 c 0,0 -13,-1.1 -12,13.2 V 208.20009 c 0,0 1.8,11.2 15.9,9.2 l 103.1,0.2 c 0,0 9,-0.7 10.5,-9.7 1.5,-9 0,-113.100002 0,-113.100002 0,0 1.3,-11.7 -10.5,-11.7 z" />
  <path
     id="path8"
     style="fill:#ffffff"
     d="M 50.3,73.700088 H 36.7 c 0,0 -1,-35.6 34.5,-49.2 0,0 28.9,-9.5 47.1,12.9 a 76.4,76.4 0 0 1 17.9,36.3 h -16.5 c 0,0 -4.7,-32.4 -29.1,-33.7 0,0 -29.6,-6.7 -40.3,33.7 z" />
  <path
     id="path10"
     style="fill:#87bf40"
     d="M 102.7,185.40009 H 65.9 l 9.6,-27.2 -0.3,-11.9 c 0,0 -11.3,-5.7 -8,-19.5 0,0 3.8,-13.7 18.9,-11.2 0,0 14.5,2.6 13.1,19 0,0 -2.8,11.6 -10.7,11.9 v 11.6 z" />
  <path
     id="path12"
     style="fill:#ffffff"
     d="m 173.6,24.400088 h 16.8 c 3.6,0 6.4,0.9 8.2,2.6 1.8,1.7 2.7,4.2 2.7,7.4 0,3.2 -1,5.9 -3,7.7 -2,1.8 -5,2.8 -9,2.8 h -5.5 v 12.1 h -10.2 z m 10.2,13.9 h 2.4 c 2,0 3.3,-0.3 4.1,-1 a 3.2,3.2 0 0 0 1.2,-2.6 3.5,3.5 0 0 0 -1,-2.6 c -0.7,-0.7 -2,-1.1 -3.9,-1.1 h -2.8 z" />
  <path
     id="path14"
     style="fill:#ffffff"
     d="m 213.8,57.000088 v -32.6 h 16.8 a 25.1,25.1 0 0 1 7.1,0.8 7.1,7.1 0 0 1 4,3 9,9 0 0 1 1.5,5.3 9.5,9.5 0 0 1 -1.1,4.6 8.9,8.9 0 0 1 -3.2,3.2 10.1,10.1 0 0 1 -3.6,1.3 10,10 0 0 1 2.7,1.2 18.5,18.5 0 0 1 1.6,1.8 8.2,8.2 0 0 1 1.4,2 l 4.9,9.4 h -11.4 l -5.4,-9.9 a 9.3,9.3 0 0 0 -1.8,-2.6 4.5,4.5 0 0 0 -2.5,-0.7 h -0.9 v 13.2 z m 10.1,-19.4 h 4.3 a 13.5,13.5 0 0 0 2.6,-0.4 3.7,3.7 0 0 0 1.7,-1 3.3,3.3 0 0 0 0.6,-1.9 3,3 0 0 0 -1,-2.5 6.7,6.7 0 0 0 -3.8,-0.8 h -4.4 z" />
  <path
     id="path16"
     style="fill:#ffffff"
     d="m 254.1,40.700088 c 0,-5.3 1.5,-9.4 4.5,-12.4 3,-3 7.1,-4.5 12.4,-4.5 5.3,0 9.6,1.5 12.5,4.4 2.9,2.9 4.4,7 4.4,12.3 a 20.2,20.2 0 0 1 -1.9,9.4 14,14 0 0 1 -5.6,5.7 18.7,18.7 0 0 1 -9,2 21,21 0 0 1 -9.2,-1.8 13.3,13.3 0 0 1 -5.8,-5.5 18.7,18.7 0 0 1 -2.3,-9.6 z m 10.1,0.1 c 0,3.3 0.6,5.6 1.8,7.1 a 6.4,6.4 0 0 0 5,2.1 6.4,6.4 0 0 0 5.1,-2.1 c 1.2,-1.4 1.8,-3.9 1.8,-7.6 0,-3.7 -0.7,-5.3 -1.9,-6.7 a 6.3,6.3 0 0 0 -5,-2.1 6.1,6.1 0 0 0 -4.9,2.1 c -1.3,1.5 -1.9,3.9 -1.9,7.2 z" />
  <path
     id="path18"
     style="fill:#ffffff"
     d="m 297,24.400088 h 30.6 v 8.1 h -10.3 v 24.5 h -10.1 v -24.5 H 297 Z" />
  <path
     id="path20"
     style="fill:#ffffff"
     d="m 339.2,24.400088 h 27 v 7 h -16.9 v 5.2 H 365 v 6.6 h -15.7 v 6.4 h 17.4 v 7.4 h -27.5 z" />
  <path
     id="path22"
     style="fill:#ffffff"
     d="m 400.9,43.700088 8.9,2.6 a 18.3,18.3 0 0 1 -2.8,6.3 12.4,12.4 0 0 1 -4.8,3.7 16.9,16.9 0 0 1 -7.2,1.3 20.2,20.2 0 0 1 -8.7,-1.6 13.5,13.5 0 0 1 -5.8,-5.4 18.7,18.7 0 0 1 -2.5,-10 c 0,-5.4 1.5,-9.5 4.3,-12.4 2.8,-2.9 7,-4.4 12.2,-4.4 5.2,0 7.4,0.9 9.7,2.5 a 15.2,15.2 0 0 1 5.3,7.7 l -8.9,2 a 9.3,9.3 0 0 0 -1,-2.2 6.3,6.3 0 0 0 -10.1,0.3 12.3,12.3 0 0 0 -1.4,6.5 c 0,3.6 0.6,6.1 1.7,7.4 a 5.4,5.4 0 0 0 4.6,2 5.7,5.7 0 0 0 4.4,-1.6 9.8,9.8 0 0 0 2.1,-4.7 z" />
  <path
     id="path24"
     style="fill:#ffffff"
     d="m 419.4,24.400088 h 30.7 v 8.1 h -10.3 v 24.5 h -10.1 v -24.5 h -10.3 z" />
  <path
     id="path26"
     style="fill:#ffffff"
     d="m 461.7,24.400088 h 27 v 7 h -16.9 v 5.2 h 15.7 v 6.6 h -15.7 v 6.4 h 17.4 v 7.4 h -27.5 z" />
  <path
     id="path28"
     style="fill:#ffffff"
     d="m 501.8,24.400088 h 15 a 18,18 0 0 1 7.2,1.2 11.9,11.9 0 0 1 4.5,3.5 15,15 0 0 1 2.6,5.2 25.9,25.9 0 0 1 0.8,6.3 21.6,21.6 0 0 1 -1.2,8.1 12.8,12.8 0 0 1 -3.3,4.8 10.7,10.7 0 0 1 -4.6,2.6 23,23 0 0 1 -6,0.9 h -15 z m 10.1,7.4 v 17.8 h 2.5 a 10,10 0 0 0 4.5,-0.7 4.6,4.6 0 0 0 2.1,-2.4 16.1,16.1 0 0 0 0.7,-5.7 c 0,-3.5 -0.5,-5.8 -1.7,-7.1 -1.2,-1.3 -3,-1.9 -5.6,-1.9 z" />
  <path
     id="path30"
     style="fill:#ffffff"
     d="m 566.5,24.400088 h 18.9 a 10.5,10.5 0 0 1 7.2,2.3 7.7,7.7 0 0 1 2.6,5.8 7.3,7.3 0 0 1 -1.8,5 8.9,8.9 0 0 1 -3.6,2.2 8.5,8.5 0 0 1 5.2,2.9 7.9,7.9 0 0 1 1.7,5.2 8.7,8.7 0 0 1 -1.2,4.5 8.9,8.9 0 0 1 -3.2,3.2 10.7,10.7 0 0 1 -3.9,1.1 36.8,36.8 0 0 1 -4.5,0.4 h -17.4 z m 10.2,12.8 h 4.4 a 5.7,5.7 0 0 0 3.3,-0.8 3.1,3.1 0 0 0 0.9,-2.4 2.8,2.8 0 0 0 -0.9,-2.2 5.5,5.5 0 0 0 -3.3,-0.8 h -4.4 z m 0,12.8 h 5.1 a 5.7,5.7 0 0 0 3.7,-0.9 3.1,3.1 0 0 0 1.1,-2.5 3,3 0 0 0 -1.1,-2.3 5.7,5.7 0 0 0 -3.7,-0.9 h -5.1 z" />
  <path
     id="path32"
     style="fill:#ffffff"
     d="m 605.7,24.400088 h 11.2 l 6.6,11 6.6,-11 h 11.1 l -12.7,19 v 13.6 h -10.1 v -13.6 z" />
  <path
     id="path34"
     style="fill:#ffffff"
     d="m 648.2,33.400088 h 9.7 v 9.1 h -9.7 z m 0,14.6 h 9.7 v 9 h -9.7 z" />
  <path
     id="path36"
     style="fill:#ffffff"
     d="m 169.4,107.90009 h 45.7 c 9,0 16.2,1.2 21.8,3.6 a 36.7,36.7 0 0 1 13.7,10.5 43.6,43.6 0 0 1 7.9,16 74.8,74.8 0 0 1 2.4,19.2 c 0,10.7 -1.2,18.9 -3.6,24.8 a 41.5,41.5 0 0 1 -10.1,14.7 33.4,33.4 0 0 1 -13.8,7.9 71.7,71.7 0 0 1 -18.3,2.7 h -45.7 z m 30.8,22.5 v 54.3 h 7.5 c 6.4,0 11,-0.7 13.7,-2.1 a 15.1,15.1 0 0 0 6.4,-7.5 c 1.5,-3.5 2.3,-9.3 2.3,-17.3 0,-10.5 -1.8,-17.7 -5.2,-21.6 -3.4,-3.9 -9.1,-5.8 -17.1,-5.8 z" />
  <path
     id="path38"
     style="fill:#ffffff"
     d="m 275.1,107.90009 h 40.4 l 15.6,60.5 15.4,-60.5 h 40.4 v 99.4 h -25.1 v -75.8 l -19.4,75.8 h -22.8 l -19.4,-75.8 v 75.8 h -25.1 z" />
  <path
     id="path40"
     style="fill:#ffffff"
     d="m 624.7,190.90009 h -34.9 l -4.8,16.4 h -31.4 l 37.4,-99.4 h 33.5 l 37.3,99.4 h -32.1 z m -6.4,-21.5 -11,-35.8 -10.8,35.8 z" />
  <path
     id="path42"
     style="fill:#ffffff"
     d="m 559.6,157.60009 a 80.9,80.9 0 0 1 -121.4,70 80.9,80.9 0 0 1 80.9,-140.100002 81.4,81.4 0 0 1 40.5,70.100002 z m -15.7,0 q 0,-27 -19.1,-46.2 -19.1,-19.200002 -46.2,-19.100002 a 62.9,62.9 0 0 0 -46.1,19.100002 q -19.2,19.2 -19.2,46.2 a 65.6,65.6 0 0 0 65.3,65.3 q 27,0 46.2,-19.2 a 62.9,62.9 0 0 0 19.1,-46.1 z m -46.4,10 21.8,5.1 q -4.1,12.9 -11.1,19.8 c -7.4,7.1 -17.1,10.7 -29,10.7 -11.9,0 -23.6,-4.2 -31.8,-12.6 -8.2,-8.4 -12.3,-19.4 -12.3,-33.2 0,-13.8 4.2,-23.9 12.6,-32.4 8.4,-8.5 18.9,-12.8 31.6,-12.8 10.2,0 18.8,2.7 25.8,8.2 a 35.6,35.6 0 0 1 13.3,21.1 l -20.9,3.2 c -1.3,-5.8 -3.6,-10 -7,-12.8 a 18.3,18.3 0 0 0 -12.2,-4.2 c -5.5,0 -10.1,2.4 -13.9,7 -3.8,4.6 -5.6,12.1 -5.6,22.1 0,10 1.3,17.4 3.8,21.7 q 5.7,9.3 15.9,9.3 a 16.5,16.5 0 0 0 11.6,-4.8 c 3.4,-3.2 5.9,-8.3 7.4,-15.4 z" />
</svg>
