<svg xmlns="http://www.w3.org/2000/svg" width="145.9128" height="35" viewBox="0 0 145.9128 35"><title>iNET-logo-2019</title><polygon points="131.289 9.195 145.913 9.195 145.913 0.225 107.549 0.236 107.506 9.17 122.312 9.195 122.312 34.658 131.289 34.658 131.289 9.195" style="fill:#2a90f3"/><path d="M77.1576,13.0516a2.7271,2.7271,0,0,1-2.0055.8874,2.823,2.823,0,0,1,0-5.6449,2.7271,2.7271,0,0,1,2.0055.8874h25.81l-.0159-8.985H73.1472a8.2663,8.2663,0,0,0-8.1828,8.3474V26.311a8.2663,8.2663,0,0,0,8.1828,8.3474h29.8041l.0159-8.985h-25.81a2.7271,2.7271,0,0,1-2.0055.8874,2.823,2.823,0,0,1,0-5.6449,2.7271,2.7271,0,0,1,2.0055.8874h25.81V13.0516Z" style="fill:#f5372a"/><path d="M53.763,34.8185c4.579,0,7.0534-4.1784,7.0534-7.753V24.1715h.0088V.4663H51.8527v23.742L33.323,5.6757C28.5437,1.31,26.0576.3882,23.3358.3882A6.9367,6.9367,0,0,0,16.278,7.5815V9.5433h-.0088V35h8.9739V10.2886L45.2058,30.25c3.8146,3.2829,5.8515,4.5687,8.5571,4.5687Z" style="fill:#2a90f3"/><path d="M11.6619,5.8309A5.8309,5.8309,0,1,1,5.8339,0a5.8334,5.8334,0,0,1,5.828,5.8309Z" style="fill:#2a90f3"/><path d="M1.4862,15.32s3.6644,2.5023,8.9209,0l.04,19.68-8.9577-.0044Z" style="fill:#2a90f3"/></svg>